<svg width="97" height="97" viewBox="0 0 97 97" fill="none" xmlns="http://www.w3.org/2000/svg">
<g clip-path="url(#clip0_5_782)">
<path d="M35.2411 66.9478C29.6546 72.0147 21.2483 73.6947 16.6391 76.4348C8.71117 69.0441 3.61778 58.6537 3.17181 47.0702C5.9414 46.0368 8.62838 44.7643 10.143 43.3263C14.1793 39.4879 17.327 38.2092 20.0847 43.3263C22.8395 48.4434 24.1181 52.9728 28.9428 53.7582C33.7649 54.5465 42.6229 60.2541 35.2411 66.9478Z" fill="#A2FF9A"/>
<path d="M47.8551 42.499C47.2214 47.8635 47.5844 53.2191 52.3226 57.1485C52.3908 57.2051 52.4525 57.2653 52.5156 57.325C53.2336 56.4011 54.0108 55.5133 54.8536 54.6706C59.4247 50.0996 65.32 47.4359 71.1365 45.9117C68.2597 42.5105 65.2387 29.7129 55.0866 34.8743C52.962 35.9548 52.1924 20.5685 52.6501 19.9833C57.024 14.2941 60.6754 11.8153 67.3636 9.52106C67.5429 9.45702 67.6855 9.35661 67.8357 9.25583C61.3613 5.2622 53.7436 2.95355 45.5756 2.95355C36.6006 2.95355 28.2826 5.74701 21.4225 10.5071C21.4591 10.672 21.5086 10.8419 21.58 10.9993C24.4738 17.2393 28.2041 27.8294 34.5648 30.2663C37.6509 31.4515 48.7743 34.7142 47.8551 42.499Z" fill="#A2FF9A"/>
<path d="M55.2397 58.647C55.4729 58.3615 55.7122 58.0798 55.9585 57.8034C56.0123 57.7427 56.0673 57.6838 56.1214 57.6242C56.388 57.3307 56.6595 57.0406 56.9414 56.7584C57.1545 56.5452 57.3733 56.3359 57.5959 56.1294C57.6638 56.0661 57.7333 56.0053 57.8017 55.9432C57.9593 55.7999 58.1184 55.6577 58.281 55.5177C58.3613 55.4483 58.4426 55.3801 58.5235 55.3119C58.6817 55.1787 58.8421 55.0471 59.0045 54.9165C59.0845 54.8521 59.1646 54.7877 59.2455 54.7246C59.4291 54.5808 59.6157 54.4397 59.8044 54.2997C59.864 54.2553 59.9231 54.2099 59.983 54.1663C60.2321 53.9846 60.4852 53.8063 60.7433 53.6315C60.7961 53.5955 60.8501 53.5616 60.9034 53.5258C61.1074 53.3894 61.3135 53.2547 61.5229 53.1224C61.6161 53.0633 61.71 53.0057 61.804 52.9479C61.9791 52.8399 62.1562 52.7333 62.3352 52.6281C62.4372 52.5683 62.5389 52.508 62.6418 52.4493C62.839 52.3362 63.0394 52.2256 63.2412 52.1157C63.3732 52.0439 63.5051 51.973 63.6377 51.9033C63.8397 51.797 64.0433 51.6919 64.2498 51.5888C64.3932 51.5174 64.5374 51.4477 64.6818 51.3783C64.8151 51.3139 64.9497 51.2505 65.0847 51.1876C65.2477 51.1116 65.411 51.036 65.5752 50.9629C65.6703 50.9204 65.767 50.8793 65.8624 50.8376C66.2374 50.6743 66.6142 50.5167 66.9936 50.3661C67.0391 50.3481 67.0842 50.3295 67.1301 50.3115C67.3595 50.2215 67.5899 50.1338 67.8204 50.0484C67.8435 50.0399 67.8668 50.0315 67.8898 50.023C79.8367 45.6238 93.2788 47.2504 93.4846 47.2767C95.1 47.4855 96.5811 46.3458 96.7912 44.7292C97.0015 43.112 95.8609 41.6307 94.2437 41.4204C94.0196 41.3912 92.7573 41.2353 90.768 41.1292C89.4479 26.9873 81.5994 14.2793 69.387 6.74256C69.3811 6.73896 69.3754 6.73555 69.3699 6.73195C69.3455 6.71699 69.3175 6.70032 69.2868 6.68232C69.1193 6.57774 68.949 6.47601 68.7713 6.37029C68.7349 6.34756 68.6972 6.32482 68.6561 6.30057C68.6472 6.29527 68.6383 6.28997 68.6296 6.28485C68.4471 6.17857 68.2643 6.07191 68.072 5.96146C67.8515 5.83528 67.6306 5.71233 67.4053 5.58862C67.2102 5.48139 67.0151 5.37662 66.8197 5.27205C66.7811 5.24988 66.7415 5.22866 66.7019 5.20801L66.5369 5.12295C66.3753 5.03959 66.215 4.95699 66.0528 4.87571C65.3884 4.53489 64.6846 4.2007 63.9744 3.88868C63.7412 3.78467 63.5078 3.68369 63.2717 3.58271C63.2696 3.58176 63.2675 3.58101 63.2654 3.58006C63.2581 3.57684 63.2505 3.57362 63.2431 3.5704C61.8006 2.96075 60.3386 2.42858 58.905 1.99151C58.6603 1.9163 58.4125 1.84393 58.1677 1.77251C57.7401 1.64766 57.3224 1.53342 56.9255 1.4332C56.8091 1.40213 56.6924 1.37353 56.5685 1.34321C56.3439 1.28733 56.1194 1.2339 55.8986 1.18199C55.638 1.12023 55.3739 1.0615 55.12 1.00807L55.0666 0.996518C54.8578 0.951618 54.6511 0.907666 54.4421 0.868639L54.0362 0.788311C53.7643 0.736402 53.4886 0.687903 53.2386 0.646602C52.804 0.57139 52.3694 0.504893 51.9346 0.441616C51.9236 0.440101 51.9124 0.438396 51.9014 0.43688L51.827 0.426839C51.6191 0.39899 51.4136 0.371709 51.2095 0.346891C50.9331 0.313169 50.6575 0.282478 50.3807 0.251597C50.3676 0.250082 50.3547 0.248945 50.3417 0.247429L49.8701 0.201582C49.3186 0.150809 48.8145 0.111782 48.3528 0.0841225C48.2007 0.0737027 48.0484 0.0663142 47.8816 0.059115C47.7019 0.0502108 47.5215 0.0416855 47.3393 0.0354337C47.3122 0.0339181 47.2854 0.0339181 47.2587 0.0327814C47.1835 0.030129 47.1081 0.0278556 47.0329 0.0250139C46.9388 0.0219827 46.844 0.0170569 46.7501 0.0155413C46.7341 0.0151624 46.7182 0.0151624 46.7019 0.0151624C46.5407 0.00928944 46.3791 0.00625823 46.2353 0.00625823C46.0546 0.00360591 45.8725 0.00246921 45.6905 0.00190085C45.652 0.00190085 45.6137 -0.000183105 45.5753 -0.000183105C45.5488 -0.000183105 45.5224 0.0013325 45.4955 0.0013325C45.2307 0.0017114 44.9696 0.00398481 44.722 0.00966834C44.5592 0.0123207 44.3995 0.0202776 44.2381 0.0250139C44.0358 0.0308868 43.8333 0.0356231 43.6313 0.0441484C43.6059 0.0452851 43.58 0.0452851 43.5546 0.0464218C43.3356 0.0532421 43.1164 0.0659353 42.8961 0.0788179C42.657 0.0930267 42.4186 0.109509 42.1818 0.125991C42.1449 0.128644 42.1079 0.130917 42.0712 0.133948C42.0608 0.134895 42.0505 0.135464 42.0405 0.1366C42.0248 0.137737 42.0094 0.138874 41.9935 0.140389C41.7457 0.158766 41.5008 0.18169 41.2529 0.205371C41.1883 0.210297 41.1236 0.216359 41.0595 0.223748C40.8741 0.241177 40.6884 0.261449 40.5029 0.282478C40.4364 0.289866 40.3701 0.297255 40.304 0.304833C40.2733 0.308432 40.2443 0.311653 40.2113 0.31601C39.6947 0.375309 39.2177 0.439154 38.7571 0.510387C38.7094 0.517397 38.6614 0.525164 38.6137 0.532553L38.62 0.531416C38.5739 0.537857 38.5275 0.545057 38.4824 0.552635C38.0908 0.614017 37.7011 0.68203 37.3114 0.753642L37.1782 0.779028C37.0422 0.804415 36.9064 0.831506 36.7705 0.858219C36.5402 0.903687 36.3075 0.950671 36.0595 1.00353L35.8218 1.05468C35.7551 1.06946 35.689 1.08594 35.6221 1.10072C35.4213 1.14562 35.221 1.19222 35.0212 1.23977C34.9192 1.26402 34.8165 1.28581 34.715 1.31063C34.7017 1.31385 34.6818 1.31858 34.6731 1.32105C34.3685 1.39626 34.0642 1.4745 33.7617 1.55635C33.6565 1.58476 33.552 1.61545 33.447 1.64463C33.0537 1.75356 32.6619 1.86818 32.2722 1.98773C32.1316 2.03092 31.9911 2.07393 31.8511 2.11826C31.4722 2.23875 31.0955 2.36511 30.7202 2.49564C30.559 2.55153 30.3974 2.60666 30.2369 2.66444C29.8679 2.79763 29.5009 2.93668 29.1357 3.07934C28.939 3.15588 28.7429 3.23318 28.5474 3.31256C28.2085 3.45048 27.8713 3.59219 27.5358 3.73806C27.3205 3.83165 27.1059 3.9277 26.892 4.02451C26.6012 4.15656 26.3115 4.29107 26.0236 4.42937C25.7777 4.54721 25.5331 4.66789 25.2889 4.79027C25.0557 4.90716 24.8238 5.02652 24.5928 5.14758C24.3149 5.29308 24.0383 5.44104 23.763 5.5926C23.5147 5.729 23.2678 5.86806 23.0223 6.00901C22.7976 6.13803 22.5738 6.26856 22.3511 6.40174C22.0496 6.58153 21.7505 6.7653 21.4531 6.9521C21.3237 7.03356 21.1939 7.11332 21.0654 7.19592C20.6801 7.44372 20.2993 7.6991 19.9213 7.95827C19.8611 7.99957 19.7993 8.03803 19.7395 8.07971C19.7188 8.09411 19.6997 8.11021 19.6792 8.1248C16.0478 10.6513 12.7745 13.7037 10.0028 17.1955C3.57912 25.2883 0.183777 35.0388 0.183777 45.3928C0.183777 45.9653 0.194954 46.5494 0.218067 47.1784C0.219773 47.228 0.222993 47.2773 0.226972 47.326C0.234929 47.5143 0.247053 47.7019 0.257473 47.89C0.265999 48.0497 0.272819 48.2098 0.283239 48.3689C0.296879 48.58 0.314309 48.7902 0.330791 49.0011C0.343484 49.1629 0.354472 49.3253 0.368492 49.4869C0.387058 49.6945 0.409223 49.9012 0.430442 50.1081C0.447303 50.2719 0.46227 50.4362 0.481025 50.5997C0.504138 50.8016 0.530662 51.0027 0.556237 51.2038C0.577456 51.3715 0.596969 51.5396 0.620272 51.7066C0.647363 51.9027 0.678054 52.0979 0.707988 52.2934C0.733942 52.4643 0.758192 52.6355 0.785852 52.806C0.817111 52.9989 0.852539 53.1908 0.88645 53.3829C0.916952 53.5547 0.945559 53.727 0.977766 53.8978C1.01319 54.0856 1.05222 54.2726 1.08992 54.4599C1.12497 54.6344 1.15869 54.8095 1.19601 54.9834C1.23504 55.1658 1.27786 55.3471 1.31916 55.529C1.35932 55.7062 1.39797 55.8837 1.44022 56.0602C1.48303 56.2395 1.52964 56.4172 1.57491 56.5958C1.61981 56.7735 1.66282 56.9516 1.71018 57.1287C1.75679 57.3047 1.80737 57.4792 1.85606 57.6543C1.9057 57.8326 1.95382 58.0112 2.00573 58.1891C2.05593 58.3615 2.10992 58.5328 2.16259 58.7044C2.21715 58.8831 2.27001 59.0619 2.32647 59.2398C2.38046 59.4093 2.43805 59.578 2.49413 59.7468C2.55324 59.925 2.61102 60.1043 2.6724 60.2818C2.73 60.4479 2.79081 60.6127 2.85011 60.7781C2.91414 60.9568 2.97685 61.1364 3.04316 61.3141C3.10397 61.477 3.16839 61.6386 3.23128 61.8006C3.30043 61.9793 3.36807 62.1585 3.43911 62.336C3.50372 62.4972 3.57192 62.6567 3.63879 62.817C3.7123 62.9939 3.7841 63.1713 3.85969 63.3471C3.92827 63.5062 4.00027 63.6638 4.07074 63.8224C4.14861 63.9979 4.22495 64.1739 4.3049 64.348C4.37614 64.5029 4.45097 64.6562 4.52391 64.8106C4.60727 64.9866 4.68892 65.1632 4.77455 65.338C4.84957 65.4915 4.92839 65.643 5.00511 65.7957C5.09245 65.9691 5.17808 66.1432 5.26788 66.3154C5.34783 66.4689 5.43119 66.6208 5.51303 66.7737C5.60359 66.9432 5.69282 67.1136 5.78584 67.2818C5.87034 67.4351 5.95824 67.5862 6.04482 67.7386C6.13879 67.9041 6.23105 68.0707 6.32748 68.2355C6.4169 68.3887 6.50992 68.5399 6.60143 68.6923C6.69862 68.8539 6.79372 69.0164 6.8928 69.1769C6.98639 69.3286 7.08377 69.4783 7.17944 69.6293C7.28004 69.7882 7.37912 69.9479 7.48181 70.1056C7.57805 70.2531 7.67789 70.399 7.77621 70.5458C7.88231 70.7044 7.9865 70.8639 8.09449 71.0212C8.19376 71.1655 8.29644 71.3078 8.39742 71.4514C8.50806 71.6085 8.61718 71.7665 8.72953 71.9224C8.83354 72.0662 8.94096 72.2077 9.04667 72.3502C9.16034 72.5034 9.27231 72.6578 9.38806 72.8096C9.49472 72.9498 9.60517 73.0877 9.71354 73.2268C9.83232 73.3789 9.94921 73.5322 10.0699 73.683C10.1777 73.8177 10.2887 73.9499 10.3982 74.0833C10.5234 74.236 10.6468 74.3898 10.7737 74.541C10.8825 74.67 10.9942 74.7969 11.1045 74.9248C11.2362 75.0781 11.3663 75.2321 11.5004 75.384C11.6031 75.5004 11.7092 75.6144 11.8132 75.7298C11.9585 75.8906 12.1023 76.0528 12.2499 76.2119C12.3361 76.3046 12.425 76.3955 12.5117 76.4878C12.6809 76.667 12.849 76.8468 13.021 77.0237C13.0627 77.0666 13.1055 77.1078 13.1473 77.1505C13.6285 77.641 14.1211 78.1233 14.6269 78.5952C14.6279 78.5962 14.6287 78.5967 14.6296 78.5973C21.9801 85.4515 31.367 89.6478 41.3134 90.5814C41.4195 92.5729 41.5756 93.8373 41.6048 94.0614C41.7777 95.3901 42.8237 96.436 44.1523 96.6088C44.4975 96.6537 47.307 97.0004 51.4475 97.0004C60.4411 97.0004 75.7124 95.3639 85.6301 85.4467C90.872 80.2048 94.3852 72.8907 96.0721 63.707C96.3667 62.1032 95.3056 60.5642 93.7017 60.2695C92.0953 59.9735 90.5583 61.036 90.2641 62.6402C88.7972 70.6237 85.8332 76.8921 81.4541 81.271C71.3419 91.3837 53.6146 91.3311 47.2604 90.9497C46.8957 85.0231 46.8167 69.214 55.0491 58.8876C55.1111 58.8069 55.1751 58.7264 55.2397 58.647ZM52.4016 52.9532C50.7132 50.5711 50.2441 47.4442 50.7871 42.8453C51.9029 33.3966 40.7267 29.3588 36.5193 27.8389C36.1736 27.714 35.8708 27.6051 35.6208 27.5088C31.349 25.8726 28.0391 18.3245 25.6227 12.8135C25.4461 12.4111 25.2733 12.0169 25.104 11.6332C28.17 9.76677 31.4496 8.34153 34.8664 7.37931C34.9033 7.36889 34.9404 7.35828 34.9778 7.34805C35.3678 7.2393 35.7596 7.137 36.1533 7.04038C36.2785 7.00969 36.404 6.9826 36.5296 6.95323C36.8065 6.88825 37.0837 6.82441 37.3626 6.76568C37.5234 6.73139 37.6856 6.69975 37.8474 6.66792C38.0984 6.61809 38.35 6.56997 38.6022 6.52469C38.7675 6.49514 38.9331 6.4671 39.0991 6.43944C39.8518 6.31516 40.6088 6.21115 41.3702 6.13026C41.4526 6.12173 41.5347 6.11188 41.6171 6.1043C41.9899 6.06717 42.3641 6.03553 42.7392 6.00901C42.8301 6.00276 42.9216 5.99688 43.0135 5.99101C43.349 5.96941 43.6849 5.95255 44.0216 5.93967C44.1161 5.93588 44.2097 5.93133 44.3054 5.92849C44.7036 5.9158 45.103 5.90898 45.5029 5.90803C45.5796 5.90803 45.6579 5.90841 45.7367 5.90898C45.9549 5.90993 46.1732 5.91258 46.391 5.91732C46.4348 5.91826 46.4784 5.91788 46.5218 5.91997C46.5629 5.92167 46.6038 5.92262 46.6449 5.92262H46.6453C46.9005 5.92944 47.1549 5.93948 47.4095 5.95123C47.4709 5.95426 47.5332 5.95615 47.5944 5.95918C47.5954 5.95918 47.6001 5.95956 47.6033 5.95956C47.8983 5.97453 48.1927 5.99329 48.4871 6.01469C48.5131 6.01678 48.5379 6.01791 48.5642 6.02C52.8239 6.3415 56.9886 7.34843 60.9036 8.99722C56.693 11.1244 53.6535 13.8348 50.3244 18.1653C49.7682 18.8769 49.2429 19.5487 49.7864 26.4358C50.1346 30.8441 50.7115 33.9005 51.5017 35.5203C52.5039 37.5748 54.0451 37.8819 54.8758 37.8819C54.8762 37.8819 54.8767 37.8819 54.8769 37.8819C55.4155 37.8819 55.9367 37.7555 56.4257 37.5069C57.5878 36.9164 58.6366 36.6167 59.5437 36.6167C62.4163 36.6167 64.387 39.908 66.4855 43.8842C66.5384 43.9843 66.5907 44.0835 66.6426 44.1819C61.6549 45.9233 56.7739 48.5765 52.7666 52.5838C52.763 52.5874 52.7598 52.5908 52.7566 52.5942C52.6371 52.7121 52.5188 52.832 52.4016 52.9532ZM84.8214 41.0605C81.2303 41.1631 76.9258 41.5498 72.464 42.5376C72.2181 42.0941 71.9612 41.6087 71.7072 41.1273C69.5181 36.9791 66.2101 30.7106 59.5427 30.7106C58.4975 30.7106 57.4188 30.876 56.3166 31.2037C55.7619 28.3392 55.3957 23.1958 55.4686 21.1708C59.0083 16.7081 62.0115 14.5748 67.5506 12.5849C77.2772 19.1048 83.5585 29.504 84.8214 41.0605ZM17.1751 72.8236C16.9752 72.6173 16.777 72.4097 16.5821 72.1994C16.57 72.1863 16.5582 72.1728 16.5461 72.1596C16.351 71.9487 16.1585 71.7358 15.9683 71.5211C15.9044 71.4491 15.8419 71.3758 15.7786 71.3033C15.6413 71.1462 15.5049 70.9888 15.3705 70.8296C15.2972 70.7431 15.2256 70.6561 15.1529 70.5691C15.0297 70.421 14.9075 70.2725 14.7867 70.1226C14.7128 70.0311 14.6396 69.9396 14.5669 69.8477C14.4489 69.6986 14.3318 69.5486 14.216 69.398C14.1457 69.3066 14.0755 69.2155 14.0061 69.1236C13.8862 68.9651 13.7684 68.8054 13.6513 68.6451C13.5895 68.5606 13.527 68.4769 13.4662 68.392C13.3267 68.1984 13.1902 68.0034 13.0545 67.8077C13.0185 67.7558 12.9812 67.7043 12.9456 67.6524C12.7753 67.4038 12.6082 67.1537 12.4435 66.9016C12.4007 66.836 12.3596 66.7695 12.3175 66.704C12.1974 66.517 12.0777 66.3296 11.9608 66.1409C11.9026 66.047 11.846 65.9526 11.7886 65.8583C11.6897 65.6955 11.5914 65.5326 11.4951 65.3687C11.4339 65.2651 11.3741 65.1605 11.3138 65.0563C11.2235 64.8995 11.1342 64.7422 11.0459 64.5842C10.9863 64.477 10.9266 64.3696 10.8679 64.2618C10.7805 64.1017 10.6949 63.9408 10.6098 63.7796C10.5547 63.6748 10.4992 63.5703 10.4448 63.4649C10.3548 63.2901 10.2667 63.1141 10.1794 62.9382C10.1335 62.8462 10.0869 62.7543 10.0419 62.6618C9.91852 62.4085 9.79765 62.1537 9.67982 61.8976C9.66542 61.8663 9.65121 61.8347 9.63662 61.8034C9.52087 61.5498 9.40776 61.295 9.29731 61.039C9.25563 60.9422 9.21547 60.8444 9.17455 60.7471C9.09953 60.569 9.02488 60.3909 8.95251 60.2117C8.90667 60.0986 8.86252 59.9853 8.81781 59.8718C8.75264 59.7058 8.68785 59.5397 8.62495 59.3728C8.58043 59.2544 8.53629 59.136 8.4929 59.0174C8.43228 58.8526 8.37336 58.6874 8.3152 58.5216C8.27352 58.4028 8.23184 58.2838 8.19111 58.1647C8.13257 57.9928 8.0763 57.8206 8.02023 57.648C7.98366 57.5353 7.94615 57.4224 7.91034 57.3091C7.84839 57.1115 7.78872 56.9128 7.72942 56.7142C7.70308 56.6256 7.67542 56.5373 7.64966 56.4488C7.56725 56.1644 7.48806 55.8793 7.41228 55.593C7.39068 55.5112 7.3706 55.4286 7.34976 55.3466C7.29576 55.1378 7.24253 54.929 7.19214 54.7191C7.16466 54.6054 7.13928 54.4912 7.11275 54.3772C7.07108 54.197 7.03015 54.017 6.99075 53.8359C6.96423 53.7133 6.93884 53.5902 6.91364 53.4674C6.87765 53.2931 6.84279 53.1186 6.80907 52.944C6.78519 52.8187 6.76151 52.6935 6.73859 52.5681C6.70638 52.3911 6.67569 52.2138 6.64595 52.0363C6.6253 51.9141 6.60465 51.7921 6.58513 51.6695C6.55501 51.4793 6.52735 51.2889 6.49988 51.0981C6.48416 50.9886 6.46749 50.8791 6.45271 50.7692C6.4188 50.5175 6.38773 50.2646 6.35855 50.0116C6.35287 49.9626 6.34624 49.9139 6.34055 49.8648C6.30929 49.5837 6.28182 49.3018 6.25644 49.0191C8.91746 47.8826 10.8646 46.7127 12.1783 45.4661C14.6783 43.0887 15.6869 42.9038 15.9368 42.9038C16.1645 42.9038 16.7651 43.3896 17.4856 44.726C17.9577 45.6029 18.3921 46.4778 18.8123 47.3235C20.8788 51.4833 23.0155 55.7848 28.4671 56.6724C30.9576 57.0795 34.4407 59.1803 35.031 61.1783C35.3364 62.2117 34.7398 63.417 33.2579 64.7608C30.095 67.6292 25.6606 69.3748 21.7484 70.9153C20.1362 71.5494 18.5842 72.1605 17.1751 72.8236ZM41.2431 84.638C34.3007 83.875 27.6928 81.2832 22.0896 77.1344C22.6805 76.8953 23.2896 76.6545 23.9108 76.4101C28.2943 74.6846 33.2625 72.7287 37.2248 69.135C41.3409 65.4024 41.3835 61.8379 40.6943 59.505C39.2345 54.564 33.2225 51.4657 29.4176 50.8439C27.0604 50.4601 26.0289 48.5775 24.101 44.6964C23.6596 43.8079 23.203 42.889 22.6843 41.9257C20.9224 38.6561 18.6518 36.9983 15.9364 36.9983C12.9194 36.9983 10.2862 39.1154 8.1104 41.1849C7.80634 41.4735 7.23021 41.9257 6.19581 42.4974C6.98279 31.625 12.1662 21.8312 20.1824 15.1125C20.193 15.1369 20.2036 15.1606 20.2142 15.1854C23.2074 22.0106 26.932 30.5046 33.5057 33.023C33.7842 33.1299 34.1241 33.253 34.5127 33.3932C39.6231 35.2396 45.4243 37.9035 44.9226 42.153C44.3571 46.9399 44.3395 52.8678 48.6315 57.6804C42.9273 66.3544 41.4598 77.0796 41.2431 84.638Z" fill="#5EFFA8"/>
<path d="M44.5316 96.6327C43.7757 96.6327 43.0204 96.3445 42.4437 95.7678C41.2907 94.6148 41.2907 92.7451 42.4437 91.5918L66.647 67.389C67.8009 66.236 69.6698 66.2362 70.823 67.389C71.976 68.542 71.976 70.4117 70.823 71.5647L46.6197 95.7676C46.043 96.3445 45.2868 96.6327 44.5316 96.6327Z" fill="#5EFFA8"/>
</g>
<defs>
<clipPath id="clip0_5_782">
<rect width="97" height="97" fill="white"/>
</clipPath>
</defs>
</svg>
